<?xml version="1.0" standalone="no"?><svg xmlns="http://www.w3.org/2000/svg" viewBox="0 0 1440 320"><path fill="#232652" fill-opacity="1" d="M0,128L0,64L48,64L48,256L96,256L96,160L144,160L144,64L192,64L192,64L240,64L240,96L288,96L288,32L336,32L336,320L384,320L384,224L432,224L432,128L480,128L480,128L528,128L528,192L576,192L576,128L624,128L624,128L672,128L672,224L720,224L720,256L768,256L768,96L816,96L816,288L864,288L864,32L912,32L912,320L960,320L960,224L1008,224L1008,64L1056,64L1056,288L1104,288L1104,64L1152,64L1152,128L1200,128L1200,96L1248,96L1248,256L1296,256L1296,64L1344,64L1344,128L1392,128L1392,64L1440,64L1440,0L1392,0L1392,0L1344,0L1344,0L1296,0L1296,0L1248,0L1248,0L1200,0L1200,0L1152,0L1152,0L1104,0L1104,0L1056,0L1056,0L1008,0L1008,0L960,0L960,0L912,0L912,0L864,0L864,0L816,0L816,0L768,0L768,0L720,0L720,0L672,0L672,0L624,0L624,0L576,0L576,0L528,0L528,0L480,0L480,0L432,0L432,0L384,0L384,0L336,0L336,0L288,0L288,0L240,0L240,0L192,0L192,0L144,0L144,0L96,0L96,0L48,0L48,0L0,0L0,0Z"></path></svg>