<?xml version="1.0" standalone="no"?>
<svg xmlns="http://www.w3.org/2000/svg" viewBox="0 0 1440 320">
    <path fill="#232652" fill-opacity="1" d="M0,32L0,0L48,0L48,224L96,224L96,64L144,64L144,32L192,32L192,192L240,192L240,192L288,192L288,288L336,288L336,96L384,96L384,64L432,64L432,288L480,288L480,288L528,288L528,256L576,256L576,32L624,32L624,128L672,128L672,320L720,320L720,192L768,192L768,256L816,256L816,288L864,288L864,256L912,256L912,160L960,160L960,128L1008,128L1008,256L1056,256L1056,256L1104,256L1104,224L1152,224L1152,96L1200,96L1200,0L1248,0L1248,256L1296,256L1296,192L1344,192L1344,32L1392,32L1392,0L1440,0L1440,320L1392,320L1392,320L1344,320L1344,320L1296,320L1296,320L1248,320L1248,320L1200,320L1200,320L1152,320L1152,320L1104,320L1104,320L1056,320L1056,320L1008,320L1008,320L960,320L960,320L912,320L912,320L864,320L864,320L816,320L816,320L768,320L768,320L720,320L720,320L672,320L672,320L624,320L624,320L576,320L576,320L528,320L528,320L480,320L480,320L432,320L432,320L384,320L384,320L336,320L336,320L288,320L288,320L240,320L240,320L192,320L192,320L144,320L144,320L96,320L96,320L48,320L48,320L0,320L0,320Z"></path>
</svg>