<?xml version="1.0" encoding="utf-8"?>
<!-- Generator: Adobe Illustrator 25.3.1, SVG Export Plug-In . SVG Version: 6.00 Build 0)  -->
<svg version="1.1" id="Capa_1" xmlns="http://www.w3.org/2000/svg" xmlns:xlink="http://www.w3.org/1999/xlink" x="0px" y="0px"
	 viewBox="0 0 16 16" style="enable-background:new 0 0 16 16;" xml:space="preserve">
	<style type="text/css">
		.st0{fill:#8D88C1;}
		.st1{fill:#252852;}
	</style>
	<path class="st0" d="M9.4,5c0.7-0.7,1.6-1.1,2.6-1l0,0c1.2,0.1,2.3,0.8,2.8,1.9L15,6l0.9-0.5l-0.1-0.2C15.1,4,13.7,3.1,12.1,3
		c-1.3-0.1-2.5,0.4-3.4,1.3L8.6,4.4l0.7,0.7L9.4,5z"/>
	<path class="st1" d="M11.3,7.2v1h3.6c-0.2,0.7-0.6,1.3-1.1,1.8c-0.6,0.5-1.4,0.8-2.2,0.8c-0.9,0-1.8-0.4-2.4-1
		C8.9,9.6,8.8,9.3,8.6,9L5.2,3L1.8,8.7h0.8H3h2.9l-0.6-1H3.6l1.6-2.7l2.5,4.5c0.2,0.4,0.5,0.7,0.7,1c0.8,0.8,1.9,1.3,3.1,1.3
		c2.3,0,4.2-1.8,4.4-4.1l0-0.5L11.3,7.2L11.3,7.2z"/>
	<polygon class="st0" points="6.2,9.3 2.7,9.3 1.8,9.3 1.5,9.3 0,11.8 1.2,11.8 2.1,10.3 6.8,10.3 "/>
</svg>
