<svg xmlns="http://www.w3.org/2000/svg" version="1.1" xmlns:xlink="http://www.w3.org/1999/xlink" xmlns:svgjs="http://svgjs.com/svgjs" width="1440" height="560" preserveAspectRatio="none" viewBox="0 0 1440 560"><g mask="url(&quot;#SvgjsMask1203&quot;)" fill="none"><path d="M395.15 185.52L506.87 250.02L506.87 379.02L395.15 443.52L283.43 379.02L283.43 250.02zM506.87 -7.98L618.59 56.52L618.59 185.52L506.87 250.02L395.15 185.52L395.15 56.52zM1288.91 185.52L1400.64 250.02L1400.64 379.02L1288.91 443.52L1177.19 379.02L1177.19 250.02zM1288.91 572.52L1400.64 637.02L1400.64 766.02L1288.91 830.52L1177.19 766.02L1177.19 637.02zM1400.64 379.02L1512.36 443.52L1512.36 572.52L1400.64 637.02L1288.91 572.52L1288.91 443.52zM1512.36 572.52L1624.08 637.02L1624.08 766.02L1512.36 830.52L1400.64 766.02L1400.64 637.02z" stroke="rgba(191, 193, 221, 0.44)" stroke-width="2"></path><path d="M338.06 -165.29L499.15 -72.29L499.15 113.71L338.06 206.71L176.98 113.71L176.98 -72.29zM499.15 113.71L660.23 206.71L660.23 392.71L499.15 485.71L338.06 392.71L338.06 206.71zM982.4 -165.29L1143.49 -72.29L1143.49 113.71L982.4 206.71L821.32 113.71L821.32 -72.29z" stroke="rgba(35, 38, 82, 0.21)" stroke-width="2"></path></g><defs><mask id="SvgjsMask1203"><rect width="1440" height="560" fill="#ffffff"></rect></mask></defs></svg>