<svg xmlns="http://www.w3.org/2000/svg" version="1.1" xmlns:xlink="http://www.w3.org/1999/xlink" xmlns:svgjs="http://svgjs.com/svgjs" width="1440" height="560" preserveAspectRatio="none" viewBox="0 0 1440 560"><g clip-path="url(&quot;#SvgjsClipPath1115&quot;)" fill="none"><circle r="93.335" cx="10.19" cy="-78.91" stroke="#8e90af" stroke-opacity="0.31" stroke-width="2"></circle><circle r="93.335" cx="321.32" cy="396.57" stroke="#8e90af" stroke-opacity="0.31" stroke-width="2"></circle><circle r="93.335" cx="782.28" cy="774.96" stroke="#8e90af" stroke-opacity="0.31" stroke-width="2"></circle><circle r="82.33" cx="843.94" cy="35.46" stroke="#8e90af" stroke-opacity="0.31" stroke-width="2"></circle><circle r="120.135" cx="253.12" cy="256.2" stroke="#8e90af" stroke-opacity="0.31" stroke-width="2"></circle><circle r="54.395" cx="262.41" cy="540.28" stroke="#8e90af" stroke-opacity="0.31" stroke-width="2"></circle><circle r="165.695" cx="803.53" cy="501.83" stroke="#8e90af" stroke-opacity="0.31" stroke-width="2"></circle><circle r="88.75" cx="100.7" cy="426.03" stroke="#8e90af" stroke-opacity="0.31" stroke-width="2"></circle><circle r="160.94" cx="1092.81" cy="270.54" stroke="#8e90af" stroke-opacity="0.31" stroke-width="2"></circle><circle r="175.915" cx="461.07" cy="148.99" stroke="#8e90af" stroke-opacity="0.31" stroke-width="2"></circle><circle r="58.105" cx="113.68" cy="194.55" stroke="#8e90af" stroke-opacity="0.31" stroke-width="2"></circle><circle r="92.44" cx="1159.55" cy="237.53" stroke="#8e90af" stroke-opacity="0.31" stroke-width="2"></circle><circle r="68.975" cx="510.41" cy="486.66" stroke="#8e90af" stroke-opacity="0.31" stroke-width="2"></circle><circle r="95.385" cx="724.7" cy="95.86" stroke="#8e90af" stroke-opacity="0.31" stroke-width="2"></circle><circle r="170.105" cx="810.81" cy="367.94" stroke="#8e90af" stroke-opacity="0.31" stroke-width="2"></circle><circle r="166.41" cx="983.32" cy="310.77" stroke="#8e90af" stroke-opacity="0.31" stroke-width="2"></circle><circle r="64.465" cx="303.24" cy="397.14" stroke="#8e90af" stroke-opacity="0.31" stroke-width="2"></circle><circle r="130.465" cx="1080.3" cy="32.4" stroke="#8e90af" stroke-opacity="0.31" stroke-width="2"></circle><circle r="123.18" cx="164.66" cy="101.52" stroke="#8e90af" stroke-opacity="0.31" stroke-width="2"></circle><circle r="67.875" cx="515.67" cy="272.39" stroke="#8e90af" stroke-opacity="0.31" stroke-width="2"></circle><circle r="92.245" cx="213.63" cy="59.77" stroke="#8e90af" stroke-opacity="0.31" stroke-width="2"></circle><circle r="134.845" cx="621.34" cy="539.09" stroke="#8e90af" stroke-opacity="0.31" stroke-width="2"></circle><circle r="186.445" cx="972.4" cy="357.17" stroke="#8e90af" stroke-opacity="0.31" stroke-width="2"></circle><circle r="122.28" cx="282.88" cy="106.22" stroke="#8e90af" stroke-opacity="0.31" stroke-width="2"></circle><circle r="54.175" cx="1384.94" cy="436.33" stroke="#8e90af" stroke-opacity="0.31" stroke-width="2"></circle><circle r="84.25" cx="874.09" cy="462.8" stroke="#8e90af" stroke-opacity="0.31" stroke-width="2"></circle><circle r="156.09" cx="849.93" cy="169.88" stroke="#8e90af" stroke-opacity="0.31" stroke-width="2"></circle><circle r="47.135" cx="515.17" cy="354.49" stroke="#8e90af" stroke-opacity="0.31" stroke-width="2"></circle><circle r="86.31" cx="1194.63" cy="62.84" stroke="#8e90af" stroke-opacity="0.31" stroke-width="2"></circle></g><defs><clipPath id="SvgjsClipPath1115"><rect width="1440" height="560" x="0" y="0"></rect></clipPath></defs></svg>