<svg xmlns="http://www.w3.org/2000/svg" version="1.1" xmlns:xlink="http://www.w3.org/1999/xlink" xmlns:svgjs="http://svgjs.com/svgjs" width="1440" height="560" preserveAspectRatio="none" viewBox="0 0 1440 560">
<g mask="url(&quot;#SvgjsMask1106&quot;)" fill="none">
    <path d="M -1071.9019004355143,232 C -927.9,256.4 -639.9,370 -351.9019004355144,354 C -63.9,338 80.1,111.6 368.0980995644856,152 C 656.1,192.4 873.72,555.8 1088.0980995644857,556 C 1302.48,556.2 1369.62,233.6 1440,153" 
        stroke="rgba(141, 136, 193, 0.4)" 
        stroke-width="2"></path>
    <path d="M -1302.9155062845784,78 C -1158.92,120 -870.92,261.4 -582.9155062845786,288 C -294.92,314.6 -150.92,204.6 137.08449371542144,211 C 425.08,217.4 596.5,319 857.0844937154214,320 C 1117.67,321 1323.42,236.8 1440,216" 
        stroke="rgba(141, 136, 193, 0.4)" stroke-width="2"></path>
    <path d="M -80.48223986665721,61 C 63.52,117.6 351.52,323.8 639.5177601333428,344 C 927.52,364.2 1071.52,161 1359.5177601333428,162 C 1647.52,163 2063.42,348.4 2079.5177601333426,349 C 2095.61,349.6 1567.9,201.8 1440,165" 
        stroke="rgba(141, 136, 193, 0.4)" stroke-width="2"></path>
    <path d="M -25.659566768088098,303 C 118.34,281.2 406.34,165.2 694.3404332319119,194 C 982.34,222.8 1126.34,484.2 1414.340433231912,447 C 1702.34,409.8 2129.21,9.8 2134.340433231912,8 C 2139.47,6.2 1578.87,352 1440,438" 
        stroke="rgba(141, 136, 193, 0.4)" stroke-width="2"></path>
    <path d="M -1287.0429963167498,89 C -1143.04,139.8 -855.04,310.6 -567.0429963167497,343 C -279.04,375.4 -135.04,227.4 152.95700368325026,251 C 440.96,274.6 615.55,469.8 872.9570036832503,461 C 1130.37,452.2 1326.59,257.8 1440,207" 
        stroke="rgba(141, 136, 193, 0.4)" stroke-width="2"></path>
    <path d="M -707.1402615639956,514 C -563.14,448.2 -275.14,184.2 12.859738436004413,185 C 300.86,185.8 444.86,548.6 732.8597384360044,518 C 1020.86,487.4 1311.43,61.8 1452.8597384360044,32 C 1594.29,2.2 1442.57,301.6 1440,369" 
        stroke="rgba(141, 136, 193, 0.4)" stroke-width="2"></path>
    <path d="M -1036.8938722732405,173 C -892.89,237.4 -604.89,525.6 -316.8938722732405,495 C -28.89,464.4 115.11,53.2 403.1061277267595,20 C 691.11,-13.2 915.73,317.6 1123.1061277267595,329 C 1330.48,340.4 1376.62,127.4 1440,77" 
        stroke="rgba(191, 193, 221, 0.6)" stroke-width="2"></path>
    <path d="M -591.2856650112976,39 C -447.29,140.2 -159.29,503.8 128.71433498870243,545 C 416.71,586.2 560.71,281.6 848.7143349887024,245 C 1136.71,208.4 1450.46,369.2 1568.7143349887024,362 C 1686.97,354.8 1465.74,239.6 1440,209" 
        stroke="rgba(191, 193, 221, 0.6)" stroke-width="2"></path>
</g>
<defs>
    <mask id="SvgjsMask1106">
        <rect width="1440" height="560" fill="#ffffff"></rect>
    </mask>
</defs>
</svg>