<?xml version="1.0" encoding="UTF-8" standalone="no" ?>
<!DOCTYPE svg PUBLIC "-//W3C//DTD SVG 1.1//EN" "http://www.w3.org/Graphics/SVG/1.1/DTD/svg11.dtd">
<svg xmlns="http://www.w3.org/2000/svg" xmlns:xlink="http://www.w3.org/1999/xlink" version="1.1" width="512" height="512" viewBox="0 0 512 512" xml:space="preserve">
<desc>Created with Fabric.js 4.2.0</desc>
<defs>
</defs>
<rect x="0" y="0" width="100%" height="100%" fill="transparent"></rect>
<g transform="matrix(1 0 0 1 256 256)" id="1d6e12ab-795f-4b58-8357-88c1de01dde7"  >
<rect style="stroke: none; stroke-width: 1; stroke-dasharray: none; stroke-linecap: butt; stroke-dashoffset: 0; stroke-linejoin: miter; stroke-miterlimit: 4; fill: rgb(255,255,255); fill-opacity: 0; fill-rule: nonzero; opacity: 1;" vector-effect="non-scaling-stroke"  x="-256" y="-256" rx="0" ry="0" width="512" height="512" />
</g>
<g transform="matrix(Infinity NaN NaN Infinity 0 0)" id="e8724176-3615-477d-8666-b3316a6c53f4"  >
</g>
<g transform="matrix(28.9 0 0 28.9 256 256)"  >
<g style="" vector-effect="non-scaling-stroke"   >
		<g transform="matrix(1 0 0 1 4.3 -2.9)"  >
<path style="stroke: none; stroke-width: 1; stroke-dasharray: none; stroke-linecap: butt; stroke-dashoffset: 0; stroke-linejoin: miter; stroke-miterlimit: 4; fill: rgb(141,136,193); fill-rule: nonzero; opacity: 1;" vector-effect="non-scaling-stroke"  transform=" translate(-12.25, -4.49)" d="M 9.4 5 C 10.1 4.3 11 3.9 12 4 L 12 4 C 13.2 4.1 14.3 4.8 14.8 5.9 L 15 6 L 15.9 5.5 L 15.8 5.3 C 15.1 4 13.7 3.1 12.1 3 C 10.799999999999999 2.9 9.6 3.4 8.7 4.3 L 8.6 4.4 L 9.299999999999999 5.1000000000000005 L 9.4 5 z" stroke-linecap="round" />
</g>
		<g transform="matrix(1 0 0 1 0.9 0.01)"  >
<path style="stroke: none; stroke-width: 1; stroke-dasharray: none; stroke-linecap: butt; stroke-dashoffset: 0; stroke-linejoin: miter; stroke-miterlimit: 4; fill: rgb(37,40,82); fill-rule: nonzero; opacity: 1;" vector-effect="non-scaling-stroke"  transform=" translate(-8.85, -7.4)" d="M 11.3 7.2 L 11.3 8.2 L 14.9 8.2 C 14.700000000000001 8.899999999999999 14.3 9.5 13.8 10 C 13.200000000000001 10.5 12.4 10.8 11.600000000000001 10.8 C 10.700000000000001 10.8 9.8 10.4 9.200000000000001 9.8 C 8.9 9.6 8.8 9.3 8.6 9 L 5.2 3 L 1.8 8.7 L 2.6 8.7 L 3 8.7 L 5.9 8.7 L 5.300000000000001 7.699999999999999 L 3.6 7.699999999999999 L 5.2 4.999999999999999 L 7.7 9.5 C 7.9 9.9 8.2 10.2 8.4 10.5 C 9.200000000000001 11.3 10.3 11.8 11.5 11.8 C 13.8 11.8 15.7 10 15.9 7.700000000000001 L 15.9 7.200000000000001 L 11.3 7.2 L 11.3 7.2 z" stroke-linecap="round" />
</g>
		<g transform="matrix(1 0 0 1 -4.55 3.16)"  >
<polygon style="stroke: none; stroke-width: 1; stroke-dasharray: none; stroke-linecap: butt; stroke-dashoffset: 0; stroke-linejoin: miter; stroke-miterlimit: 4; fill: rgb(141,136,193); fill-rule: nonzero; opacity: 1;" vector-effect="non-scaling-stroke"  points="2.8,-1.25 -0.7,-1.25 -1.6,-1.25 -1.9,-1.25 -3.4,1.25 -2.2,1.25 -1.3,-0.25 3.4,-0.25 " />
</g>
</g>
</g>
</svg>